<svg width="32" height="33" viewBox="0 0 32 33" fill="none" xmlns="http://www.w3.org/2000/svg">
<g clip-path="url(#clip0_2732_34578)">
<rect y="0.335938" width="32" height="32" rx="16" fill="white"/>
<rect x="-0.500977" y="-0.165039" width="33.0024" height="33.0024" rx="7.07195" fill="url(#paint0_radial_2732_34578)"/>
<rect x="-0.500977" y="-0.165039" width="33.0024" height="33.0024" rx="7.07195" fill="url(#paint1_radial_2732_34578)"/>
<rect x="-0.500977" y="-0.165039" width="33.0024" height="33.0024" rx="7.07195" fill="url(#paint2_radial_2732_34578)"/>
<path d="M16 13.3359C15.2044 13.3359 14.4413 13.652 13.8787 14.2146C13.3161 14.7772 13 15.5403 13 16.3359C13 17.1316 13.3161 17.8946 13.8787 18.4573C14.4413 19.0199 15.2044 19.3359 16 19.3359C16.7956 19.3359 17.5587 19.0199 18.1213 18.4573C18.6839 17.8946 19 17.1316 19 16.3359C19 15.5403 18.6839 14.7772 18.1213 14.2146C17.5587 13.652 16.7956 13.3359 16 13.3359ZM16 11.3359C17.3261 11.3359 18.5979 11.8627 19.5355 12.8004C20.4732 13.7381 21 15.0099 21 16.3359C21 17.662 20.4732 18.9338 19.5355 19.8715C18.5979 20.8092 17.3261 21.3359 16 21.3359C14.6739 21.3359 13.4021 20.8092 12.4645 19.8715C11.5268 18.9338 11 17.662 11 16.3359C11 15.0099 11.5268 13.7381 12.4645 12.8004C13.4021 11.8627 14.6739 11.3359 16 11.3359ZM22.5 11.0859C22.5 11.4175 22.3683 11.7354 22.1339 11.9698C21.8995 12.2042 21.5815 12.3359 21.25 12.3359C20.9185 12.3359 20.6005 12.2042 20.3661 11.9698C20.1317 11.7354 20 11.4175 20 11.0859C20 10.7544 20.1317 10.4365 20.3661 10.2021C20.6005 9.96763 20.9185 9.83594 21.25 9.83594C21.5815 9.83594 21.8995 9.96763 22.1339 10.2021C22.3683 10.4365 22.5 10.7544 22.5 11.0859ZM16 8.33594C13.526 8.33594 13.122 8.34294 11.971 8.39394C11.187 8.43094 10.661 8.53594 10.173 8.72594C9.739 8.89394 9.426 9.09494 9.093 9.42894C8.78001 9.73134 8.53935 10.1005 8.389 10.5089C8.199 10.9989 8.094 11.5239 8.058 12.3069C8.006 13.4109 8 13.7969 8 16.3359C8 18.8099 8.007 19.2139 8.058 20.3649C8.095 21.1479 8.2 21.6749 8.389 22.1619C8.559 22.5969 8.759 22.9099 9.091 23.2419C9.428 23.5779 9.741 23.7789 10.171 23.9449C10.665 24.1359 11.191 24.2419 11.971 24.2779C13.075 24.3299 13.461 24.3359 16 24.3359C18.474 24.3359 18.878 24.3289 20.029 24.2779C20.811 24.2409 21.338 24.1359 21.826 23.9469C22.259 23.7779 22.574 23.5769 22.906 23.2449C23.243 22.9079 23.444 22.5949 23.61 22.1649C23.8 21.6719 23.906 21.1449 23.942 20.3649C23.994 19.2609 24 18.8749 24 16.3359C24 13.8619 23.993 13.4579 23.942 12.3069C23.905 11.5249 23.8 10.9969 23.61 10.5089C23.4593 10.1009 23.2191 9.7319 22.907 9.42894C22.6047 9.11578 22.2355 8.8751 21.827 8.72494C21.337 8.53494 20.811 8.42994 20.029 8.39394C18.925 8.34194 18.539 8.33594 16 8.33594ZM16 6.33594C18.717 6.33594 19.056 6.34594 20.122 6.39594C21.187 6.44594 21.912 6.61294 22.55 6.86094C23.21 7.11494 23.766 7.45894 24.322 8.01394C24.8305 8.51383 25.224 9.11853 25.475 9.78594C25.722 10.4229 25.89 11.1489 25.94 12.2139C25.987 13.2799 26 13.6189 26 16.3359C26 19.0529 25.99 19.3919 25.94 20.4579C25.89 21.5229 25.722 22.2479 25.475 22.8859C25.2247 23.5537 24.8311 24.1586 24.322 24.6579C23.822 25.1663 23.2173 25.5597 22.55 25.8109C21.913 26.0579 21.187 26.2259 20.122 26.2759C19.056 26.3229 18.717 26.3359 16 26.3359C13.283 26.3359 12.944 26.3259 11.878 26.2759C10.813 26.2259 10.088 26.0579 9.45 25.8109C8.78233 25.5604 8.17753 25.1669 7.678 24.6579C7.16941 24.1581 6.77593 23.5534 6.525 22.8859C6.277 22.2489 6.11 21.5229 6.06 20.4579C6.013 19.3919 6 19.0529 6 16.3359C6 13.6189 6.01 13.2799 6.06 12.2139C6.11 11.1479 6.277 10.4239 6.525 9.78594C6.77524 9.11812 7.1688 8.51326 7.678 8.01394C8.17767 7.50517 8.78243 7.11167 9.45 6.86094C10.088 6.61294 10.812 6.44594 11.878 6.39594C12.944 6.34894 13.283 6.33594 16 6.33594Z" fill="white"/>
</g>
<defs>
<radialGradient id="paint0_radial_2732_34578" cx="0" cy="0" r="1" gradientUnits="userSpaceOnUse" gradientTransform="translate(11.2856 24.5868) rotate(-55.3758) scale(30.0789)">
<stop stop-color="#B13589"/>
<stop offset="0.79309" stop-color="#C62F94"/>
<stop offset="1" stop-color="#8A3AC8"/>
</radialGradient>
<radialGradient id="paint1_radial_2732_34578" cx="0" cy="0" r="1" gradientUnits="userSpaceOnUse" gradientTransform="translate(10.1069 34.016) rotate(-65.1363) scale(26.6309)">
<stop stop-color="#E0E8B7"/>
<stop offset="0.444662" stop-color="#FB8A2E"/>
<stop offset="0.71474" stop-color="#E2425C"/>
<stop offset="1" stop-color="#E2425C" stop-opacity="0"/>
</radialGradient>
<radialGradient id="paint2_radial_2732_34578" cx="0" cy="0" r="1" gradientUnits="userSpaceOnUse" gradientTransform="translate(-2.26896 1.01362) rotate(-8.1301) scale(45.839 9.80449)">
<stop offset="0.156701" stop-color="#406ADC"/>
<stop offset="0.467799" stop-color="#6A45BE"/>
<stop offset="1" stop-color="#6A45BE" stop-opacity="0"/>
</radialGradient>
<clipPath id="clip0_2732_34578">
<rect y="0.335938" width="32" height="32" rx="16" fill="white"/>
</clipPath>
</defs>
</svg>
