<svg width="32" height="32" viewBox="0 0 32 32" fill="none" xmlns="http://www.w3.org/2000/svg">
<rect width="32" height="32" rx="16" fill="#0C1529"/>
<g clip-path="url(#clip0_25827_80115)">
<path d="M9.68618 23.2171L9.5193 23.0654C8.78603 22.2815 8.41282 21.3303 8.26263 20.2876C8.11598 19.2701 8.22268 18.2713 8.63584 17.3257C9.44226 15.4802 10.8302 14.3286 12.7998 13.8707C13.1179 13.791 13.4448 13.7516 13.7727 13.7534C13.841 13.7534 13.9123 13.7458 13.972 13.7934L13.9821 13.807C14.0367 13.8707 14.0286 13.9486 14.0286 14.0235C14.0286 14.6161 14.0286 15.2088 14.0286 15.801C14.0286 16.0645 14.0023 16.0827 13.7404 16.023C13.0989 15.8707 12.4239 15.957 11.8414 16.2659C11.2588 16.5747 10.8086 17.085 10.5747 17.7014C10.3857 18.2137 10.3603 18.7721 10.5021 19.2994C10.6438 19.8267 10.9457 20.2971 11.3661 20.6456C11.4576 20.7215 11.5623 20.7847 11.626 20.8904L11.7378 20.9915C11.9553 21.165 12.11 21.4001 12.3345 21.5685C13.178 22.1996 14.1014 22.3412 15.0653 21.9387C15.9862 21.5543 16.5359 20.8403 16.6871 19.839C16.7108 19.6768 16.7221 19.513 16.721 19.349C16.721 15.2818 16.721 11.2143 16.721 7.14644C16.721 6.71003 16.721 6.70952 17.165 6.70952C17.6636 6.70952 18.1617 6.70952 18.6598 6.70952C18.7529 6.70952 18.851 6.69435 18.9324 6.76009C18.9399 6.76655 18.9487 6.77137 18.9582 6.77425C19.0138 6.82482 19.0239 6.89359 19.0411 6.95984C19.2576 7.80638 19.6647 8.54268 20.3054 9.14548C20.3969 9.23195 20.4763 9.32905 20.5653 9.41754C20.6543 9.50604 20.7287 9.591 20.8106 9.67798C21.0877 9.88532 21.2966 10.1655 21.5691 10.3779C22.0825 10.7733 22.6706 11.0606 23.2981 11.2224C23.3699 11.2416 23.4498 11.2487 23.5065 11.3028C23.5098 11.3097 23.514 11.3162 23.5191 11.322C23.5697 11.3933 23.5697 11.4762 23.5697 11.5582C23.5697 12.1256 23.5697 12.693 23.5697 13.2604C23.5697 13.5203 23.5358 13.5607 23.2733 13.5516C22.4404 13.5215 21.6177 13.359 20.8359 13.0702C20.2378 12.8498 19.6701 12.5544 19.1463 12.1913C19.0861 12.1503 19.0229 12.0634 18.9526 12.0978C18.8823 12.1321 18.9177 12.2348 18.9177 12.3066C18.9157 14.4498 18.9157 16.5929 18.9177 18.7361C18.9177 20.0246 18.4844 21.1594 17.698 22.1597C16.8845 23.2149 15.7229 23.9471 14.42 24.226C12.8675 24.5724 11.4035 24.3225 10.0402 23.4983C9.96505 23.452 9.89354 23.4001 9.82626 23.343C9.77569 23.3015 9.72866 23.2616 9.68618 23.2171Z" fill="white"/>
<path d="M9.81189 23.2988C10.4541 23.7175 11.1409 24.0301 11.8944 24.1894C15.0732 24.8619 18.1448 22.8422 18.7759 19.6972C18.8486 19.3008 18.8813 18.8981 18.8735 18.4952C18.8681 16.3844 18.8632 14.2733 18.8589 12.1618V11.9246C19.1637 12.1491 19.4815 12.3554 19.8106 12.5426C20.7426 13.0581 21.7722 13.3729 22.8332 13.4665C23.0086 13.4817 23.1846 13.4918 23.3606 13.5009C23.4875 13.5075 23.5169 13.464 23.5159 13.3431C23.5118 12.669 23.5159 11.9944 23.5159 11.3203C23.7578 11.3636 24.0029 11.3871 24.2486 11.3906C24.3573 11.3906 24.3841 11.43 24.3836 11.5342C24.3801 12.4359 24.3786 13.337 24.3836 14.2382C24.3836 14.3763 24.3184 14.3707 24.2233 14.3677C22.6314 14.3171 21.1846 13.8402 19.891 12.9062L19.7266 12.7889C19.7266 12.8733 19.7266 12.9325 19.7266 12.9911C19.7438 15.1024 19.757 17.2137 19.7797 19.3245C19.8106 22.1276 17.9845 24.4746 15.2446 25.0475C13.1455 25.487 11.3229 24.8994 9.80734 23.3787C9.7953 23.3646 9.78463 23.3494 9.77548 23.3332C9.7689 23.2988 9.7775 23.2872 9.81189 23.2988Z" fill="#ED1B46"/>
<path d="M18.9314 6.75904C18.274 6.75904 17.6206 6.76865 16.9657 6.75904C16.8049 6.75904 16.7731 6.80101 16.7731 6.95525C16.7775 11.102 16.7785 15.2487 16.7761 19.3955C16.7761 20.7568 15.9462 21.8173 14.6279 22.1439C13.5609 22.4089 12.2379 21.881 11.7373 20.9904C12.2225 21.2356 12.7616 21.3547 13.305 21.3369C14.5308 21.2974 15.7116 20.2071 15.8396 18.9874C15.8615 18.762 15.8716 18.5357 15.8699 18.3092C15.8699 14.2488 15.8689 10.1885 15.8669 6.12843C15.8669 5.93727 15.9124 5.88721 16.1045 5.88974C16.9642 5.90086 17.8194 5.89732 18.677 5.88974C18.8126 5.88974 18.8732 5.91705 18.8626 6.06522C18.8434 6.30037 18.9147 6.52743 18.9314 6.75904Z" fill="#71CCD8"/>
<path d="M13.9705 13.791C12.9333 13.8026 11.9594 14.0539 11.0724 14.5935C9.56942 15.5068 8.62933 16.8231 8.34158 18.5668C8.07053 20.1977 8.45688 21.6743 9.47586 22.981C9.49271 23.0071 9.50742 23.0345 9.51986 23.063C8.95702 22.6518 8.51959 22.1279 8.16104 21.5373C7.56641 20.5527 7.28693 19.4099 7.36005 18.262C7.43317 17.1141 7.8554 16.016 8.57015 15.1149C9.2696 14.2213 10.2208 13.5577 11.3009 13.2099C12.1333 12.9363 12.9854 12.8711 13.8537 12.9682C13.9549 12.9793 13.9791 13.0187 13.9766 13.1118C13.972 13.3358 13.9725 13.5644 13.9705 13.791Z" fill="#71CCD8"/>
<path d="M11.6271 20.8897C11.3168 20.7072 11.049 20.4604 10.8417 20.166C10.6344 19.8715 10.4923 19.5362 10.4251 19.1825C10.1035 17.6315 11.1098 16.1892 12.679 15.9308C12.8963 15.8958 13.1173 15.8886 13.3364 15.9096C13.5537 15.9356 13.7693 15.9752 13.9817 16.0279V13.8064C14.2472 13.7821 14.5091 13.8226 14.7726 13.8403C14.9005 13.8494 14.8859 13.9272 14.8859 14.0097C14.8859 14.5764 14.8859 15.1433 14.8859 15.7103C14.8859 16.0507 14.8783 16.391 14.8894 16.7308C14.8945 16.8826 14.8606 16.9013 14.7165 16.8638C13.5073 16.5478 12.2471 17.0626 11.6317 18.1362C11.1498 18.9787 11.1386 19.8455 11.5599 20.7198C11.5872 20.7739 11.6423 20.8184 11.6271 20.8897Z" fill="#ED1B46"/>
<path d="M23.504 11.3017C22.8441 11.197 22.2534 10.9244 21.7123 10.5431C21.365 10.3061 21.059 10.0136 20.8066 9.67735C20.8845 9.67027 20.9331 9.72792 20.9892 9.76534C21.7068 10.2336 22.4982 10.4662 23.3493 10.5057C23.4646 10.5107 23.5217 10.53 23.5147 10.6614C23.503 10.8738 23.5066 11.0883 23.504 11.3017Z" fill="#71CCD8"/>
<path d="M20.5635 9.41658C20.3703 9.33516 20.25 9.16777 20.1139 9.02314C19.5185 8.40162 19.1177 7.61959 18.9609 6.77328C19.1875 6.77025 19.4161 6.76873 19.6406 6.76367C19.7119 6.76367 19.7605 6.77025 19.762 6.86178C19.7782 7.78063 20.0654 8.61504 20.5645 9.37966C20.5686 9.38876 20.5635 9.40393 20.5635 9.41658Z" fill="#ED1B46"/>
</g>
<defs>
<clipPath id="clip0_25827_80115">
<rect width="17.0401" height="19.3016" fill="white" transform="translate(7.3457 5.88965)"/>
</clipPath>
</defs>
</svg>
